<svg width="200" height="200" viewBox="0 0 200 200" fill="none" xmlns="http://www.w3.org/2000/svg">
<path fill-rule="evenodd" clip-rule="evenodd" d="M99.5551 80.3479C98.9693 79.368 98.4776 78.5528 98.6065 77.0316C98.8595 74.0434 101.802 72.0271 104.685 72.8649C105.375 73.0654 105.643 73.3032 106.169 73.5773C106.115 73.3393 105.746 73.0841 105.569 72.9067L98.3927 65.7925C97.7118 65.2196 94.1311 61.5586 93.1137 60.5303C92.7558 60.1687 92.3573 59.8657 92.0321 59.4927L89.282 56.7547C88.7073 56.18 88.1722 55.6452 87.5975 55.0703L85.8857 53.4132C84.4776 52.0049 83.0095 50.6393 81.346 49.5308L80.3348 48.8577C79.2745 48.1499 78.5345 47.8455 77.65 47.3041C77.0207 46.919 74.8971 46.04 74.1282 45.7723L70.8684 44.7937C67.8539 44.1067 64.8472 43.8613 61.6598 44.1059C58.02 44.3851 54.2892 45.3092 51.0307 46.9528L48.8364 48.1274C47.7841 48.7337 46.7859 49.4278 45.8109 50.1553C44.7163 50.972 43.1168 52.3484 42.2502 53.3322L39.212 57.0859C38.9632 57.4209 38.7827 57.7443 38.5461 58.1043C37.7566 59.3058 37.094 60.6185 36.5039 61.9302L36.0212 63.1317C35.2407 65.317 34.7583 66.7162 34.3681 69.0852C34.2161 70.0077 34.0305 71.1304 34.0019 72.0876C33.994 72.356 34.0135 72.6378 34.0055 72.906L34.0728 76.9643C34.2616 78.4239 34.4512 79.8601 34.8077 81.2823C35.0247 82.1476 35.2735 83.0614 35.5727 83.8861C36.2957 85.8788 37.1768 87.8148 38.2594 89.6211C38.3709 89.807 38.4583 89.9634 38.5678 90.1276C39.0122 90.7948 39.4354 91.4954 39.9433 92.121C40.0882 92.2994 40.1845 92.4253 40.3226 92.611L42.7202 95.3209C44.135 96.7272 45.6761 98.0158 47.3391 99.1243C48.1838 99.6873 49.0514 100.235 49.9617 100.686C50.1763 100.792 50.3277 100.868 50.5416 100.975C50.7444 101.077 50.8827 101.145 51.0849 101.247C51.8481 101.632 52.6452 101.946 53.4415 102.259C53.6712 102.35 53.8518 102.392 54.0871 102.483C54.5163 102.649 54.9166 102.756 55.3525 102.902C55.752 103.037 56.2575 103.147 56.6702 103.269C57.1016 103.397 57.5772 103.474 58.0454 103.578C61.8968 104.435 66.5551 104.354 70.3265 103.516C71.7229 103.205 72.9541 102.831 74.2635 102.399L76.0568 101.693C77.2223 101.221 78.3023 100.583 79.3957 99.9784C80.1152 99.5804 80.7875 99.0925 81.4654 98.6249C81.636 98.507 81.816 98.3867 81.9706 98.2606L85.56 95.1122L90.6138 90.0595C91.1391 89.5343 91.8386 88.9141 92.258 88.3349C94.1699 85.6949 92.7903 81.7491 89.6066 80.9336C87.5688 80.4115 86.0517 81.0922 84.6905 82.4531L78.3879 88.7563C77.125 89.9984 75.0309 91.5387 73.4454 92.2905C71.4221 93.2499 70.1992 93.7835 67.8097 94.262C66.0897 94.6065 63.4773 94.717 61.5233 94.4507C60.9857 94.3775 60.5679 94.3251 60.0646 94.2248C57.0913 93.6323 54.3025 92.4295 51.882 90.6161C51.2332 90.13 50.625 89.6585 50.0479 89.0812L48.8001 87.8295C48.7428 87.7654 48.7559 87.7784 48.7003 87.712C47.5441 86.3312 46.5217 84.9528 45.7052 83.3176C45.6054 83.1177 45.5249 82.9794 45.4383 82.7695C45.3372 82.5246 45.2562 82.4003 45.1658 82.1726C44.3604 80.1427 43.5865 77.4888 43.5686 75.294C43.566 74.9794 43.5107 74.883 43.5121 74.5356C43.5133 74.2449 43.5133 73.9545 43.5121 73.6637C43.5092 72.9674 43.6991 71.224 43.8164 70.5995L44.4717 67.8861C44.9094 66.3891 45.7536 64.5264 46.5999 63.2768C46.7201 63.0994 46.7917 62.9548 46.9141 62.776C47.4635 61.9737 48.0774 61.0773 48.7707 60.3944C49.1881 59.9832 49.5388 59.5005 50.0114 59.1357C50.1946 58.9943 50.2918 58.8658 50.4543 58.7093C50.5556 58.6119 50.5546 58.6227 50.6632 58.5378L52.5734 57.0791C52.6684 57.0108 52.7224 56.9637 52.8282 56.8995C53.7233 56.3552 54.5977 55.7969 55.5695 55.4023C56.7921 54.9056 58.0073 54.38 59.3404 54.1198C61.7114 53.6571 62.8875 53.4934 65.4671 53.6172C66.425 53.6632 67.4701 53.8316 68.4017 54.0518C68.8844 54.166 69.2705 54.2612 69.7413 54.3967C70.2438 54.5413 70.5746 54.6798 71.0438 54.833L72.2412 55.3201C72.4457 55.4193 72.6154 55.4779 72.8036 55.5728C73.0001 55.6721 73.1704 55.7573 73.3832 55.8627C74.2962 56.3155 75.1516 56.8552 75.9783 57.4515C76.0834 57.5273 76.1419 57.5564 76.2351 57.6296C76.3452 57.7162 76.3431 57.7311 76.4764 57.8229C77.8022 58.736 81.3798 62.382 82.5441 63.5461C83.739 64.7408 84.9165 65.9699 86.1459 67.1167L87.4334 68.3828C87.5205 68.4633 87.5676 68.5139 87.6521 68.5988L92.2709 73.2171C92.3512 73.2981 92.4033 73.3591 92.4909 73.4317C93.0257 73.8748 93.4473 74.4279 93.9793 74.8776C94.1406 75.0141 94.2669 75.1582 94.4175 75.3087L99.3072 80.1443C99.433 80.2613 99.4048 80.2633 99.5555 80.3479H99.5551Z" fill="#63C988"/>
<path fill-rule="evenodd" clip-rule="evenodd" d="M106.168 73.576C105.643 73.302 105.375 73.064 104.685 72.8636C101.802 72.0257 98.8593 74.0421 98.6063 77.0303C98.4774 78.5514 98.9693 79.3666 99.555 80.3466C99.5895 80.4191 99.6302 80.4952 99.6979 80.5664C100.539 81.453 101.844 82.6784 102.704 83.5385C104.225 85.059 105.707 86.6272 107.293 88.0778L115.12 95.8456C115.795 96.4957 116.546 97.1237 117.301 97.6857C118.337 98.4576 119.442 99.3383 120.586 99.9422L121.599 100.506C123.271 101.477 125.987 102.629 127.89 103.071C128.304 103.167 128.646 103.31 129.131 103.406C129.608 103.5 129.963 103.603 130.427 103.686C131.362 103.853 132.292 103.977 133.238 104.081C133.482 104.108 133.744 104.072 133.988 104.092L135.9 104.175C136.012 104.178 136.101 104.149 136.271 104.143C136.819 104.123 137.311 104.132 137.798 104.092C138.056 104.071 138.343 104.11 138.602 104.081C139.766 103.954 140.916 103.822 142.044 103.557C142.484 103.454 142.917 103.391 143.331 103.268L146.402 102.318C146.639 102.236 146.759 102.16 146.985 102.086C147.224 102.007 147.321 101.961 147.521 101.861L150.739 100.297C150.926 100.184 151.052 100.105 151.253 99.9962C152.483 99.3308 153.92 98.2097 155.014 97.3454L156.284 96.2249C156.456 96.0512 156.545 95.9973 156.719 95.8444C157.406 95.2394 157.989 94.498 158.621 93.8346C159.473 92.9404 160.181 91.89 160.882 90.8793C161.905 89.4026 162.897 87.6722 163.561 86.0058C164.247 84.2844 164.68 82.9989 165.172 81.2061C165.399 80.3809 165.521 79.3736 165.671 78.4993C165.894 77.2011 165.929 76.1364 165.998 74.8649V73.305C165.963 72.2213 165.872 70.9876 165.765 70.2572L165.148 66.9077L164.609 65.0561C164.308 63.8302 163.601 62.1885 163.026 61.042L162.503 59.9903C162.396 59.7762 162.318 59.6807 162.212 59.4662C161.751 58.5363 160.998 57.3783 160.362 56.5342L159.326 55.1791C159.189 55.0115 159.086 54.9024 158.95 54.7409C158.44 54.1381 157.981 53.6145 157.425 53.0594C157.027 52.6611 156.646 52.2354 156.208 51.8858C155.514 51.3316 155.018 50.7995 154.05 50.077C153.132 49.391 152.184 48.7338 151.194 48.152C150.343 47.6517 149.471 47.1355 148.554 46.7714C147.812 46.4769 147.098 46.1153 146.333 45.8403C145.307 45.4716 144.325 45.1944 143.26 44.8922C141.308 44.3381 138.411 44.0372 136.169 44H135.324C135.069 44.011 134.961 44.057 134.644 44.0556C133.542 44.0511 132.649 44.1463 131.685 44.3022C131.202 44.3804 130.791 44.4282 130.327 44.5206C128.209 44.9422 126.2 45.5765 124.225 46.4065L123.123 46.8801C123.03 46.9234 122.974 46.9664 122.877 47.0149L122.044 47.4311C121.049 47.8369 118.891 49.3164 118.092 49.8909C117.462 50.3435 116.913 50.7951 116.322 51.2726C115.362 52.0475 113.89 53.5301 113.029 54.391C111.879 55.5409 110.761 56.725 109.586 57.8492C109.556 57.8776 109.511 57.9148 109.471 57.9513L108.264 59.1897C108.135 59.3575 108.031 59.4324 107.906 59.5929C107.531 60.0757 107.241 60.5711 107.059 61.1901C106.295 63.7847 107.811 66.3882 110.291 67.1526C111.227 67.4413 112.123 67.4401 113.063 67.1393L114.154 66.6544C114.506 66.4523 114.779 66.2253 115.066 65.9367C115.973 65.027 121.332 59.5751 121.841 59.1819C122.034 59.0332 122.096 58.9412 122.276 58.8015L124.039 57.4126C124.98 56.6984 127.067 55.4896 128.164 55.1257L129.34 54.6722C131.268 53.9255 134.084 53.5578 136.166 53.5609L137.688 53.6695C139.087 53.764 140.421 54.0681 141.719 54.4209C144.541 55.1882 147.777 56.9988 149.844 59.0645C150.507 59.7267 151.217 60.3416 151.776 61.0991C152.868 62.5792 153.823 63.7756 154.555 65.5469C154.639 65.7504 154.728 65.884 154.796 66.0661C155.162 67.0449 155.531 68.0243 155.793 69.0354C156.019 69.9035 156.192 70.8413 156.272 71.7621C156.355 72.7089 156.497 73.7832 156.387 74.7597C156.341 75.1768 156.362 75.7104 156.287 76.2892C156.152 77.3237 156.085 77.9546 155.837 78.991L155.276 80.8205C155.19 81.0393 155.165 81.2389 155.076 81.4347C154.611 82.4551 154.36 83.0959 153.808 84.1335C153.094 85.4751 152.114 86.6734 151.147 87.8297C151.023 87.9773 150.88 88.101 150.742 88.2397C150.21 88.7716 149.693 89.3431 149.099 89.8022L147.266 91.1759C145.235 92.6741 141.656 93.9961 139.24 94.3439C137.309 94.6219 135.161 94.6936 133.282 94.423C131.965 94.2336 130.625 94.008 129.395 93.5278L128.216 93.0771C126.33 92.3324 124.295 91.1321 122.755 89.7897C122.326 89.4165 121.88 89.0792 121.478 88.6752L116.732 83.9669C115.241 82.5882 113.368 80.6204 111.861 79.1121L107.024 74.331C106.786 74.0928 106.467 73.6682 106.168 73.5775L106.168 73.576Z" fill="#3C81EA"/>
<path fill-rule="evenodd" clip-rule="evenodd" d="M99.9845 144.022C99.8813 144.306 97.6265 146.631 97.237 147.099C96.9402 147.455 96.6542 147.726 96.3345 148.1C95.8175 148.704 95.2978 149.782 95.268 150.866C95.2306 152.224 95.5767 152.928 96.1306 153.856C96.1509 154.012 96.2657 154.091 96.4005 154.223L97.076 154.852C97.7916 155.435 98.7237 155.754 99.6774 155.812H100.312C100.441 155.804 100.569 155.792 100.697 155.775C102.226 155.567 103 154.785 103.954 153.761L104.192 153.51C104.754 152.91 105.276 152.275 105.857 151.697L112.133 144.824C112.262 144.685 112.29 144.611 112.43 144.47L113.055 143.791C113.392 143.442 113.71 143.138 114.017 142.741L117.488 138.931C117.79 138.57 118.162 138.26 118.45 137.883C118.646 137.626 118.856 137.478 119.07 137.2L120.013 136.186C120.153 136.045 120.181 135.971 120.31 135.831C121.152 134.922 121.966 133.971 122.839 133.09L124.115 131.703C124.241 131.559 124.266 131.494 124.413 131.349C124.969 130.801 125.45 130.17 125.988 129.61C126.107 129.487 126.202 129.409 126.316 129.286L127.865 127.575C128.002 127.434 128.026 127.361 128.162 127.22L129.766 125.509C129.892 125.365 129.918 125.3 130.064 125.155C130.209 125.013 130.244 124.979 130.373 124.812L131.019 124.099C131.481 123.546 132.85 122.186 133.208 121.724C133.348 121.541 133.398 121.51 133.544 121.353L136.367 118.254C136.409 118.206 136.409 118.204 136.442 118.166L136.993 117.576C137.916 116.529 139.136 115.497 139.492 114.098C139.801 112.88 139.65 111.417 138.947 110.326C138.842 110.163 138.812 110.094 138.689 109.933C138.286 109.404 137.873 109.015 137.271 108.688C136.965 108.521 136.732 108.396 136.364 108.291C135.96 108.174 135.739 108.144 135.274 108.077C134.587 107.978 133.479 108.242 133.031 108.453C131.749 109.054 131.643 109.446 130.882 110.216L129.302 111.951C128.854 112.487 127.458 113.879 127.082 114.349C126.604 114.948 126.045 115.495 125.527 116.054L124.738 116.95C124.675 117.02 124.644 117.049 124.577 117.115L120.149 121.978C120.025 122.107 119.946 122.164 119.832 122.312L118.899 123.335C118.656 123.576 118.513 123.777 118.273 124.014L117.62 124.719C117.485 124.861 117.46 124.934 117.324 125.075L114.701 127.94C114.694 127.948 114.684 127.961 114.676 127.969L112.595 130.235C112.446 130.381 112.422 130.432 112.294 130.586L111.671 131.267C111.557 131.396 111.47 131.461 111.352 131.6C111.344 131.608 111.334 131.62 111.327 131.629L109.468 133.683C109.361 133.811 109.26 133.889 109.143 134.01C108.389 134.793 107.717 135.663 106.943 136.428L104.444 139.199C104.336 139.322 104.233 139.407 104.117 139.525L102.867 140.883C102.72 141.031 102.685 141.118 102.543 141.265L100.639 143.328C100.43 143.554 100.235 143.829 99.9852 144.022L99.9845 144.022Z" fill="#3C81EA"/>
<path fill-rule="evenodd" clip-rule="evenodd" d="M96.1304 153.856C95.5767 152.928 95.2305 152.224 95.2679 150.866C95.2978 149.782 95.8175 148.704 96.3344 148.1C96.6539 147.726 96.9399 147.455 97.2369 147.099C97.6265 146.631 99.8812 144.306 99.9844 144.022C99.7378 143.876 99.5644 143.643 99.3838 143.417C98.93 142.848 97.3576 141.243 96.7542 140.558L95.5843 139.283C95.4441 139.141 95.416 139.067 95.2871 138.928C95.1731 138.806 95.106 138.762 94.9971 138.621C94.8775 138.466 94.8509 138.437 94.7163 138.304C94.4807 138.072 94.3475 137.876 94.1185 137.652C93.5062 137.053 92.988 136.351 92.3793 135.751L90.3141 133.469C89.7962 132.881 89.2232 132.346 88.7198 131.749L87.0815 129.964C86.9641 129.831 86.9438 129.772 86.8104 129.637L85.1977 127.881C84.8777 127.502 84.4439 127.117 84.1601 126.745C83.6148 126.031 82.5388 125.025 81.9077 124.271C81.3786 123.638 80.1983 122.479 79.7504 121.918C79.3594 121.428 78.8899 121.007 78.4841 120.522L78.0114 120.017C77.1138 118.892 76.0318 117.936 75.1097 116.833L73.3333 114.86C72.7346 114.213 71.7705 113.235 71.2429 112.604C71.1241 112.462 71.1082 112.417 70.9696 112.279C70.0432 111.358 69.2296 110.329 68.3061 109.4C66.8376 107.923 64.679 107.696 62.8221 108.617C61.7485 109.149 60.9194 110.136 60.5407 111.28C60.152 112.454 60.2051 114.191 60.9716 115.267C61.0719 115.408 61.1091 115.491 61.2147 115.622L62.9288 117.548C63.0305 117.669 63.1384 117.763 63.2527 117.876L64.991 119.778C65.1084 119.911 65.1287 119.97 65.2621 120.105C66.4134 121.266 67.6761 122.857 68.7961 123.961L70.1205 125.407C70.1278 125.416 70.1381 125.428 70.1454 125.437C70.1527 125.445 70.163 125.458 70.1702 125.466C70.7639 126.176 71.4206 126.829 72.0291 127.52L72.6257 128.173C72.7342 128.281 72.8261 128.359 72.9249 128.471C73.2966 128.893 73.7387 129.309 74.0842 129.757C74.2036 129.912 74.2304 129.941 74.365 130.074C74.9904 130.69 75.5103 131.389 76.1315 132.002L78.7673 134.908C78.8697 135.025 78.9628 135.092 79.0653 135.208L82.5842 139.079C82.9148 139.512 83.3804 139.935 83.7414 140.367L85.5089 142.294C85.6136 142.414 85.6928 142.479 85.8049 142.596C85.9409 142.737 85.9656 142.81 86.1016 142.951C86.2118 143.065 86.2923 143.133 86.4026 143.248L88.4382 145.504C88.5504 145.621 88.6295 145.686 88.7342 145.806C88.7713 145.849 88.7667 145.844 88.8088 145.895L89.3304 146.46C89.4464 146.605 89.4684 146.644 89.6071 146.781C90.5483 147.71 91.4909 148.862 92.4074 149.849L94.3091 151.913C94.4423 152.048 94.4628 152.107 94.5802 152.24L95.7012 153.455C95.8517 153.608 95.9449 153.752 96.1301 153.857L96.1304 153.856Z" fill="#63C988"/>
</svg>
